<svg xmlns="http://www.w3.org/2000/svg" viewBox="0 0 64 64" fill="none">
  <rect width="64" height="64" rx="12" fill="#0E3A57"/>
  <g fill="#D9B13B">
    <path d="M41.8 10.5c-.9-.9-2.4-.9-3.3 0l-6.9 6.9-2.4-2.4c-.6-.6-1.5-.6-2.1 0l-4.2 4.2c-.6.6-.6 1.5 0 2.1l2.4 2.4-9.1 9.1c-.9.9-.9 2.4 0 3.3l2.8 2.8c.9.9 2.4.9 3.3 0l9.1-9.1 2.4 2.4c.6.6 1.5.6 2.1 0l4.2-4.2c.6-.6.6-1.5 0-2.1l-2.4-2.4 6.9-6.9c.9-.9.9-2.4 0-3.3l-2.8-2.8Z"/>
    <path d="M18.5 44.7c-1.2 0-2.5.5-3.4 1.4l-2.9 2.9c-1.9 1.9-1.9 4.9 0 6.7 1.8 1.8 4.8 1.8 6.7 0l2.9-2.9c1.9-1.9 1.9-4.9 0-6.7-.9-.9-2.1-1.4-3.3-1.4Z"/>
  </g>
</svg>
